<?xml version="1.0" encoding="UTF-8" standalone="no"?>
<svg
   height="128"
   width="128"
   version="1.1"
   id="svg7"
   sodipodi:docname="icon.svg"
   xml:space="preserve"
   inkscape:version="1.3 (0e150ed6c4, 2023-07-21)"
   xmlns:inkscape="http://www.inkscape.org/namespaces/inkscape"
   xmlns:sodipodi="http://sodipodi.sourceforge.net/DTD/sodipodi-0.dtd"
   xmlns="http://www.w3.org/2000/svg"
   xmlns:svg="http://www.w3.org/2000/svg"><defs
     id="defs7" /><sodipodi:namedview
     id="namedview7"
     pagecolor="#505050"
     bordercolor="#eeeeee"
     borderopacity="1"
     inkscape:showpageshadow="0"
     inkscape:pageopacity="0"
     inkscape:pagecheckerboard="0"
     inkscape:deskcolor="#505050"
     inkscape:zoom="2.4251553"
     inkscape:cx="23.297477"
     inkscape:cy="108.03432"
     inkscape:window-width="1920"
     inkscape:window-height="1017"
     inkscape:window-x="-8"
     inkscape:window-y="-8"
     inkscape:window-maximized="1"
     inkscape:current-layer="svg7" /><rect
     x="2"
     y="2"
     width="124"
     height="124"
     rx="14"
     fill="#363d52"
     stroke="#212532"
     stroke-width="4"
     id="rect1"
     style="fill:#121224;fill-opacity:1;stroke:#121224;stroke-opacity:1" /><path
     style="fill:#79304e;fill-opacity:1;stroke:none;stroke-width:7.55907;stroke-linecap:round;stroke-linejoin:round;stroke-opacity:1"
     d="m 81.585962,100.46766 0.646641,-4.427142 29.000257,-6.615831 1.24356,-1.890241 2.9846,1.492297 2.18868,-0.447689 c 0,0 0.99488,-0.497432 0.74616,-2.039468 -0.24861,-1.542037 1.69124,-5.571231 -0.94512,-7.759928 -2.6364,-2.188697 -5.91944,-2.387669 -5.91944,-2.387669 l -40.689862,9.451192 z"
     id="path22-1" /><path
     style="fill:#272743;fill-opacity:1;stroke:none;stroke-width:7.55907;stroke-linecap:round;stroke-linejoin:round;stroke-opacity:1"
     d="m 85.101665,31.374474 c 0,0 1.428354,-7.370669 5.719555,-9.903177 4.2912,-2.532504 12.24043,-4.994665 12.24043,-4.994665 0,0 7.80857,8.300992 7.59752,16.883375 -0.21115,8.582378 2.04006,15.265382 -0.7738,21.104213 -2.81389,5.838835 -5.28503,8.370903 -7.59752,8.371339 -2.312516,4.37e-4 -14.280528,-1.055208 -14.280528,-1.055208"
     id="path9-5" /><path
     style="fill:#c59da5;fill-opacity:1;stroke:none;stroke-width:7.55907;stroke-linecap:round;stroke-linejoin:round;stroke-opacity:1"
     d="m 59.633213,37.144673 c 0,0 14.524967,-9.948621 25.468452,-5.770199 10.943484,4.178422 17.907525,15.917795 16.713685,22.483886 -1.19384,6.566091 -3.38252,10.147596 -0.19881,13.530126 3.18357,3.382533 11.93833,8.555815 11.93833,8.555815 L 102.21347,92.260044 92.882163,90.613343 84.052509,84.49914 74.37455,87.401084 13.001398,104.76171 37.945358,80.918611 c 0,0 11.142446,-37.605792 14.723967,-40.391405 3.581482,-2.785613 6.964042,-3.382533 6.964042,-3.382533 z"
     id="path7-4"
     sodipodi:nodetypes="cssscccccccscc" /><path
     style="fill:#8a6d9b;fill-opacity:1;stroke:none;stroke-width:7.55907;stroke-linecap:round;stroke-linejoin:round;stroke-opacity:1"
     d="m 50.554375,67.913048 c 0,0 1.618012,1.688339 0.07026,2.673201 C 49.076997,71.571111 38.876622,74.525702 33.881957,69.953123 28.887291,65.38054 18.757252,52.788358 18.686917,47.09022 18.616657,41.392082 18.194495,27.815038 21.43048,28.588861 24.666425,29.36268 37.469654,32.59866 37.469654,32.59866 l 15.19504,16.461289 z"
     id="path10-2" /><path
     style="fill:#4a4c7d;fill-opacity:1;stroke:none;stroke-width:7.55907;stroke-linecap:round;stroke-linejoin:round;stroke-opacity:1"
     d="m 52.097226,65.368067 c 0,0 -6.33126,-2.180771 -7.59752,-5.205709 -1.266221,-3.024937 -9.848623,-10.692799 -9.848623,-10.692799 0,0 9.567245,5.416748 9.215493,2.88424 C 43.514902,49.821295 35.776635,39.691271 35.776635,39.691271 L 52.1676,50.735811 Z"
     id="path11-4" /><path
     style="fill:#272743;fill-opacity:1;stroke:none;stroke-width:7.55907;stroke-linecap:round;stroke-linejoin:round;stroke-opacity:1"
     d="m 56.847573,56.246029 c -6.566083,0 -5.620307,2.660029 -9.575197,-4.042242 -3.954929,-6.702271 -8.531291,-13.03941 -12.709694,-17.446783 -4.178441,-4.407373 -13.132204,-6.168143 -13.132204,-6.168143 0,0 3.58152,-4.377398 6.964042,-2.188697 3.382522,2.188697 29.845892,14.326014 30.641773,17.90752 0.79588,3.581501 -2.18872,11.938345 -2.18872,11.938345 z"
     id="path8-5" /><path
     style="fill:#8a6d9b;fill-opacity:1;stroke:none;stroke-width:7.55907;stroke-linecap:round;stroke-linejoin:round;stroke-opacity:1"
     d="m 87.484751,31.530975 11.888721,6.507132 -3.374106,1.617989 11.815804,5.31123 -9.532082,1.055209 5.627792,7.597516 -8.828609,-4.853969 -20.611792,-16.988892 -8.253117,4.999305 -1.24109,-2.574006 2.474576,-6.32125 8.34866,1.764572 1.837856,-2.363272 z"
     id="path12-2"
     sodipodi:nodetypes="cccccccccccccc" /><path
     style="fill:#8a6d9b;fill-opacity:1;stroke:none;stroke-width:7.55907;stroke-linecap:round;stroke-linejoin:round;stroke-opacity:1"
     d="m 80.108968,62.513663 3.681001,7.36198 4.476882,0.397944 L 84.58585,57.141405 72.448525,55.45014 Z"
     id="path13-5" /><path
     style="fill:#494c7d;fill-opacity:1;stroke:none;stroke-width:7.55907;stroke-linecap:round;stroke-linejoin:round;stroke-opacity:1"
     d="m 66.569577,69.096477 13.788111,5.205705 -3.658071,3.51737 z"
     id="path14-7" /><path
     style="fill:#494c7d;fill-opacity:1;stroke:none;stroke-width:7.55907;stroke-linecap:round;stroke-linejoin:round;stroke-opacity:1"
     d="m 108.65339,71.467423 -10.44608,6.864551 c 0,0 5.17332,3.681013 5.67072,3.879962 0.25092,0.100291 1.23465,-0.0017 2.14881,-0.127429 0.43556,-0.05991 -0.16484,3.814201 0.15209,3.762751 0.33778,-0.05478 1.57887,-4.033282 1.57887,-4.033282 l 3.18356,-6.864551 z"
     id="path15-1"
     sodipodi:nodetypes="ccsssccc" /><path
     style="fill:#494c7d;fill-opacity:1;stroke:none;stroke-width:7.55907;stroke-linecap:round;stroke-linejoin:round;stroke-opacity:1"
     d="m 101.24727,65.017543 c 0,0 -10.247086,3.38253 -9.849127,5.173286 0.397921,1.790753 4.576362,2.984586 4.576362,2.984586 l 9.053245,-4.576366 z"
     id="path16-2" /><path
     style="fill:#782f4e;fill-opacity:1;stroke:none;stroke-width:7.55907;stroke-linecap:round;stroke-linejoin:round;stroke-opacity:1"
     d="m 92.266443,99.721506 -3.979287,5.969184 -1.890241,0.19896 -26.363851,-21.190573 2.586641,-5.770202 z"
     id="path18-6" /><path
     style="fill:#d44475;fill-opacity:1;stroke:none;stroke-width:7.55907;stroke-linecap:round;stroke-linejoin:round;stroke-opacity:1"
     d="m 62.619705,78.928886 c 0,0 18.504448,1.989725 20.096248,3.482018 1.591761,1.492296 9.351684,11.639889 9.351684,13.729102 0,2.08921 0.198806,3.5815 0.198806,3.5815 l -1.98972,0.895384 z"
     id="path17-0" /><path
     style="fill:#eb7983;fill-opacity:1;stroke:none;stroke-width:7.55907;stroke-linecap:round;stroke-linejoin:round;stroke-opacity:1"
     d="M 64.988547,83.481114 22.755182,96.078797 7.3348158,106.62434 27.033065,112.19557 82.546369,101.1526 81.621438,95.649248 Z"
     id="path19-2"
     sodipodi:nodetypes="ccccccc" /><path
     style="fill:#d34374;fill-opacity:1;stroke:none;stroke-width:7.55907;stroke-linecap:round;stroke-linejoin:round;stroke-opacity:1"
     d="M 70.990677,88.927251 28.510059,101.2138 73.627039,91.762608 73.129638,90.021599 Z"
     id="path20-4" /><path
     style="fill:#d34374;fill-opacity:1;stroke:none;stroke-width:7.55907;stroke-linecap:round;stroke-linejoin:round;stroke-opacity:1"
     d="m 80.021223,95.521738 -1.195886,1.477295 -2.462185,-0.844169 -49.243153,12.521836 -15.406083,-1.96973 15.546792,4.43189 50.509412,-9.91898 1.055217,-1.19591 0.984842,0.84417 1.055217,-0.84417 z"
     id="path21-8" /></svg>
