<?xml version="1.0" encoding="UTF-8" standalone="no"?>
<!-- Created with Inkscape (http://www.inkscape.org/) -->

<svg
   width="192"
   height="192"
   viewBox="0 0 50.8 50.8"
   version="1.1"
   id="svg1"
   inkscape:export-filename="bitmap.png"
   inkscape:export-xdpi="96"
   inkscape:export-ydpi="96"
   inkscape:version="1.3 (0e150ed6c4, 2023-07-21)"
   sodipodi:docname="square.svg"
   xml:space="preserve"
   xmlns:inkscape="http://www.inkscape.org/namespaces/inkscape"
   xmlns:sodipodi="http://sodipodi.sourceforge.net/DTD/sodipodi-0.dtd"
   xmlns="http://www.w3.org/2000/svg"
   xmlns:svg="http://www.w3.org/2000/svg"><sodipodi:namedview
     id="namedview1"
     pagecolor="#505050"
     bordercolor="#eeeeee"
     borderopacity="1"
     inkscape:showpageshadow="0"
     inkscape:pageopacity="0"
     inkscape:pagecheckerboard="0"
     inkscape:deskcolor="#505050"
     inkscape:document-units="mm"
     inkscape:zoom="3.1286757"
     inkscape:cx="58.331389"
     inkscape:cy="105.79556"
     inkscape:window-width="1920"
     inkscape:window-height="1017"
     inkscape:window-x="-8"
     inkscape:window-y="-8"
     inkscape:window-maximized="1"
     inkscape:current-layer="layer1" /><defs
     id="defs1" /><g
     inkscape:label="Layer 1"
     inkscape:groupmode="layer"
     id="layer1"><g
       id="rect1"
       transform="scale(0.50000002)"><path
         style="color:#000000;fill:#141523;stroke-linecap:round;stroke-linejoin:round;-inkscape-stroke:none;paint-order:stroke fill markers"
         d="m 23.851562,8.5839844 c -0.09236,-0.010295 -0.185707,-0.00767 -0.277343,0.00781 l -6.804688,1.1367187 c -0.01373,0.00232 -0.0274,0.00492 -0.04102,0.00781 L 11.585938,10.8125 c -0.492443,0.102667 -0.831996,0.555125 -0.792969,1.056641 l 0.40625,5.142578 c -2.3e-5,0.0039 -2.3e-5,0.0078 0,0.01172 l 0.501953,5.548829 -1.597656,5.164062 c -0.04841,0.157541 -0.05713,0.324603 -0.02539,0.486328 l 1.109375,5.701172 -0.394531,5.007813 c -0.04697,0.603351 0.448495,1.109846 1.052734,1.076171 l 4.980469,-0.279296 4.919922,1.347656 c 0.228253,0.06217 0.471153,0.04141 0.685547,-0.05859 l 5.30664,-2.464844 5.9375,1.150391 c 0.04452,0.0083 0.08954,0.01348 0.134766,0.01563 l 5.142578,0.289062 c 0.595818,0.03351 1.088201,-0.458869 1.054687,-1.054687 L 39.71875,33.810547 c -0.0027,-0.05453 -0.0099,-0.10875 -0.02148,-0.16211 l -1.03125,-4.615234 2.210937,-7.628906 c 0.05258,-0.180399 0.05327,-0.371961 0.002,-0.552735 l -1.15039,-4.03125 0.279296,-4.974609 c 0.02688,-0.492919 -0.309911,-0.93172 -0.793019,-1.033203 L 34.072266,9.7363281 c -0.03099,-0.00669 -0.06227,-0.011905 -0.09375,-0.015625 z m -0.08594,2.0039066 9.943359,1.115234 4.253907,0.890625 -0.240235,4.283203 c -0.0061,0.111325 0.0064,0.22289 0.03711,0.330078 l 1.117187,3.916016 -2.203125,7.599609 c -0.04681,0.161424 -0.05219,0.332043 -0.01563,0.496094 l 1.068359,4.785156 0.222657,3.945313 -3.958985,-0.222657 -6.189453,-1.199218 c -0.20651,-0.04018 -0.420431,-0.0142 -0.611328,0.07422 l -5.269531,2.447266 -4.722656,-1.292969 c -0.104277,-0.0283 -0.21245,-0.03951 -0.320313,-0.0332 l -4,0.22461 0.316406,-4.001954 c 0.007,-0.09014 0.0017,-0.180807 -0.01563,-0.269531 l -1.089843,-5.589844 1.582031,-5.113281 c 0.03859,-0.124362 0.05252,-0.255063 0.04102,-0.384765 l -0.519532,-5.738282 -0.333984,-4.259765 4.259765,-0.892578 z"
         id="path9"
         sodipodi:nodetypes="ccccccccccccccccccccccccccccccccccccccccccccccccccccccccccc" /><path
         style="color:#000000;fill:#2c2d4a;stroke-linecap:round;stroke-linejoin:round;-inkscape-stroke:none;paint-order:stroke fill markers"
         d="M 0,0 V 16.933333 33.866667 50.8 H 16.933333 33.866667 50.8 V 33.866667 16.933333 0 H 33.866667 16.933333 Z m 23.739636,9.5782267 10.127031,1.1363643 5.142838,1.075904 -0.288871,5.142838 1.196309,4.191993 -2.283581,7.874971 1.087272,4.86637 0.288871,5.142838 -5.142838,-0.288871 -6.255949,-1.211296 -5.601209,2.601392 -5.076176,-1.390096 -5.142838,0.288871 0.405143,-5.142838 -1.136365,-5.835303 1.655196,-5.353162 -0.518831,-5.744869 -0.405143,-5.142838 5.142838,-1.075904 z"
         id="path10"
         inkscape:label="path10" /></g><g
       id="rect1-3"
       transform="matrix(0.50000002,0,0,0.50000002,-31.485417,87.577083)" /><g
       id="rect1-3-3"
       transform="matrix(0.50000002,0,0,0.50000002,6.2654328,84.467723)" /><g
       id="rect1-3-3-3"
       transform="matrix(0.50000002,0,0,0.50000002,-30.427083,115.09376)" /><g
       id="rect1-3-3-3-3"
       transform="matrix(0.50000002,0,0,0.50000002,-64.558333,110.59584)" /><g
       id="rect1-3-3-7"
       transform="matrix(0.50000002,0,0,0.50000002,2.6458333,115.35834)" /><g
       id="rect1-3-3-6"
       transform="matrix(0.50000002,0,0,0.50000002,38.1,114.82918)" /><g
       id="rect1-3-3-4"
       transform="matrix(0.50000002,0,0,0.50000002,37.835417,84.93126)" /><rect
       style="fill:#2c2d4a;fill-opacity:1;stroke-width:1;stroke-linecap:round;stroke-linejoin:round"
       id="rect1-6-7-2-34"
       width="8.4666662"
       height="8.4666662"
       x="25.4"
       y="0"
       rx="0"
       ry="0" /><g
       id="rect1-6-7-2-34-4-4"
       transform="scale(0.50000002)"><path
         style="color:#000000;fill:#2c2d4a;stroke-linecap:round;stroke-linejoin:round;-inkscape-stroke:none"
         d="M 50.8,16.933333 V 33.866667 L 67.733333,16.933333 Z m 16.933333,0 16.933334,16.933334 V 16.933333 Z M 84.666667,33.866667 67.733333,50.8 H 84.666667 Z M 67.733333,50.8 50.8,33.866667 V 50.8 Z"
         id="path11" /><path
         id="path12"
         style="color:#000000;fill:#141523;stroke-linecap:round;stroke-linejoin:round;-inkscape-stroke:none"
         d="M 67.232589,16.933333 50.8,33.367989 v 0.998389 L 67.231555,50.8 h 1.001489 L 84.666667,34.366378 V 33.367989 L 68.232011,16.933333 Z m -0.707451,0.500228 -15.224393,15.226461 z m 2.414323,0 15.226461,15.226461 z M 67.7323,17.640784 83.959216,33.867183 67.7323,50.093583 51.507967,33.867183 Z M 51.300745,35.074345 66.525138,50.300806 Z m 32.865177,0 -15.226461,15.226461 z" /></g><path
       id="rect2-6-0"
       style="fill:#2c2d4a;fill-opacity:1;stroke:#141523;stroke-width:0.5;stroke-linecap:round;stroke-linejoin:round;stroke-dasharray:none;stroke-opacity:1"
       d="m 5.8513472,31.573121 2.5713111,-0.538183 3.4032447,-0.568081 5.063422,0.568081 2.57132,0.538183 -0.144253,2.571315 0.597981,2.095945 -1.141596,3.93747 0.543615,2.433252 0.144253,2.571316 -2.57132,-0.144252 -3.127923,-0.605763 -2.80065,1.30074 -2.5380937,-0.694977 -2.5713111,0.144252 0.20236,-2.571316 -0.56808,-2.917777 0.827505,-2.676517 -0.259425,-2.872373 z"
       sodipodi:nodetypes="cccccccccccccccccccc" /><path
       id="rect1-9-5-9"
       style="fill:#f3d3ad;fill-opacity:1;stroke-width:1;stroke-linecap:round;stroke-linejoin:round"
       d="m -23.844026,57.077888 -2.571419,0.537952 0.202571,2.571419 h 2.368848 z" /><path
       id="path3"
       style="fill:#2c2d4a;fill-opacity:1;stroke-width:1;stroke-linecap:round;stroke-linejoin:round"
       d="m -32.310693,51.720592 v 8.466667 h 6.097819 l -0.202571,-2.571419 2.571419,-0.537952 v -5.357296 z" /><rect
       style="fill:#f3d3ad;fill-opacity:1;stroke-width:1;stroke-linecap:round;stroke-linejoin:round"
       id="rect1-6-1-1-5"
       width="8.4666662"
       height="8.4666662"
       x="-23.84403"
       y="60.187256"
       rx="0"
       ry="0" /><rect
       style="fill:#f3d3ad;fill-opacity:1;stroke-width:1;stroke-linecap:round;stroke-linejoin:round"
       id="rect1-6-7-5-7-02"
       width="8.4666662"
       height="8.4666662"
       x="-23.84403"
       y="51.720589"
       rx="0"
       ry="0" /><rect
       style="fill:#f3d3ad;fill-opacity:1;stroke-width:1;stroke-linecap:round;stroke-linejoin:round"
       id="rect1-6-7-2-2-5-5"
       width="8.4666662"
       height="8.4666662"
       x="-15.377357"
       y="51.720589"
       rx="0"
       ry="0" /><rect
       style="fill:#f3d3ad;fill-opacity:1;stroke-width:1;stroke-linecap:round;stroke-linejoin:round"
       id="rect1-6-7-2-8-4-9-3"
       width="8.4666662"
       height="8.4666662"
       x="-15.377357"
       y="60.187256"
       rx="0"
       ry="0" /><rect
       style="fill:#f3d3ad;fill-opacity:1;stroke-width:1;stroke-linecap:round;stroke-linejoin:round"
       id="rect1-6-7-2-1-9-1-1"
       width="8.4666662"
       height="8.4666662"
       x="-32.310692"
       y="60.187256"
       rx="0"
       ry="0" /><rect
       style="fill:#f3d3ad;fill-opacity:1;stroke-width:1;stroke-linecap:round;stroke-linejoin:round"
       id="rect1-6-7-2-4-4-5-6"
       width="8.4666662"
       height="8.4666662"
       x="-32.310692"
       y="68.653915"
       rx="0"
       ry="0" /><rect
       style="fill:#f3d3ad;fill-opacity:1;stroke-width:1;stroke-linecap:round;stroke-linejoin:round"
       id="rect1-6-7-2-3-8-4-1"
       width="8.4666662"
       height="8.4666662"
       x="-23.844027"
       y="68.653915"
       rx="0"
       ry="0" /><rect
       style="fill:#f3d3ad;fill-opacity:1;stroke-width:1;stroke-linecap:round;stroke-linejoin:round"
       id="rect1-6-7-2-47-7-5-4"
       width="8.4666662"
       height="8.4666662"
       x="-15.377357"
       y="68.653915"
       rx="0"
       ry="0" /><path
       id="rect1-6-7-5-7-02-9"
       style="fill:#2c2d4a;fill-opacity:1;stroke-width:1;stroke-linecap:round;stroke-linejoin:round"
       d="m -23.844023,51.720589 v 5.357296 l 3.403409,-0.567924 5.063257,0.567924 v -5.357296 z" /><path
       id="rect1-6-7-2-2-5-5-2"
       style="fill:#2c2d4a;fill-opacity:1;stroke-width:1;stroke-linecap:round;stroke-linejoin:round"
       d="m -15.377358,51.720589 v 5.357296 l 2.571419,0.537952 -0.144177,2.571419 h 6.0394246 v -8.466667 z" /><path
       id="rect1-6-7-2-1-9-1-1-0-0"
       style="fill:#2c2d4a;fill-opacity:1;stroke-width:1;stroke-linecap:round;stroke-linejoin:round"
       d="m -32.310693,60.187259 v 8.46666 h 6.097819 l -0.567924,-2.91765 0.827339,-2.67632 -0.259415,-2.87269 z" /><path
       id="rect1-6-7-2-4-4-5-6-0-0-2"
       style="fill:#2c2d4a;fill-opacity:1;stroke-width:1;stroke-linecap:round;stroke-linejoin:round"
       d="m -32.310692,68.653919 v 8.46666 h 8.466666 v -6.03942 l -2.571419,0.14418 0.202572,-2.57142 z" /><path
       id="rect1-6-7-2-3-8-4-1-4-77"
       style="fill:#2c2d4a;fill-opacity:1;stroke-width:1;stroke-linecap:round;stroke-linejoin:round"
       d="m -18.505334,70.475509 -2.800345,1.3007 -2.538346,-0.69505 v 6.03942 h 8.466667 v -6.03942 z" /><path
       id="rect1-6-7-2-47-7-5-4-6-3"
       style="fill:#2c2d4a;fill-opacity:1;stroke-width:1;stroke-linecap:round;stroke-linejoin:round"
       d="m -12.950116,68.653919 0.144178,2.57142 -2.57142,-0.14418 v 6.03943 h 8.4666666 v -8.46667 z" /><path
       id="rect1-6-7-2-8-4-9-3-3-79"
       style="fill:#2c2d4a;fill-opacity:1;stroke-width:1;stroke-linecap:round;stroke-linejoin:round"
       d="m -12.950116,60.187256 0.597896,2.095996 -1.141532,3.937747 0.543636,2.43292 h 6.0394246 v -8.466663 z" /><path
       id="path7"
       style="fill:#2c2d4a;fill-opacity:1;stroke:#141523;stroke-width:1;stroke-linecap:round;stroke-linejoin:bevel;stroke-opacity:1;paint-order:stroke fill markers"
       d="M 33.866667 27.827242 L 28.882475 29.241109 L 27.827242 33.866667 L 28.553813 38.1 L 33.866667 39.223962 L 38.988318 38.1 L 39.964486 33.866667 L 38.1 29.633333 L 33.866667 27.827242 z " /><path
       style="fill:#2c2d4a;fill-opacity:1;stroke:none;stroke-width:1;stroke-linecap:round;stroke-linejoin:bevel;stroke-opacity:1;paint-order:stroke fill markers"
       d="m 7.5954032,69.561522 -5.313102,-1.123961 -0.726314,-4.233328 6.039419,-8e-6 z"
       id="path7-0"
       sodipodi:nodetypes="ccccc" /><path
       style="fill:#2c2d4a;fill-opacity:1;stroke:none;stroke-width:1;stroke-linecap:round;stroke-linejoin:bevel;stroke-opacity:1;paint-order:stroke fill markers"
       d="m 7.5954072,69.561531 5.1216508,-1.123969 0.976161,-4.233322 -6.0978148,-5e-6 z"
       id="path8-9"
       sodipodi:nodetypes="ccccc" /><path
       style="fill:#2c2d4a;fill-opacity:1;stroke:none;stroke-width:1;stroke-linecap:round;stroke-linejoin:bevel;stroke-opacity:1;paint-order:stroke fill markers"
       d="m 7.5954032,58.164806 4.2333298,1.806094 1.86449,4.233333 -6.0978178,-8e-6 z"
       id="path13-4" /><path
       style="fill:#2c2d4a;fill-opacity:1;stroke:none;stroke-width:1;stroke-linecap:round;stroke-linejoin:bevel;stroke-opacity:1;paint-order:stroke fill markers"
       d="m 1.5559792,64.204225 1.055208,-4.625422 4.984216,-1.413997 v 6.039419 z"
       id="path14-4" /></g></svg>
