<?xml version="1.0" encoding="UTF-8" standalone="no"?>
<!-- Created with Inkscape (http://www.inkscape.org/) -->

<svg
   width="384"
   height="384"
   viewBox="0 0 101.6 101.6"
   version="1.1"
   id="svg1"
   inkscape:export-filename="bitmap.png"
   inkscape:export-xdpi="96"
   inkscape:export-ydpi="96"
   inkscape:version="1.3 (0e150ed6c4, 2023-07-21)"
   sodipodi:docname="square.svg"
   xml:space="preserve"
   xmlns:inkscape="http://www.inkscape.org/namespaces/inkscape"
   xmlns:sodipodi="http://sodipodi.sourceforge.net/DTD/sodipodi-0.dtd"
   xmlns="http://www.w3.org/2000/svg"
   xmlns:svg="http://www.w3.org/2000/svg"><sodipodi:namedview
     id="namedview1"
     pagecolor="#505050"
     bordercolor="#eeeeee"
     borderopacity="1"
     inkscape:showpageshadow="0"
     inkscape:pageopacity="0"
     inkscape:pagecheckerboard="0"
     inkscape:deskcolor="#505050"
     inkscape:document-units="mm"
     inkscape:zoom="1.1061539"
     inkscape:cx="-7.2322669"
     inkscape:cy="252.22531"
     inkscape:window-width="1875"
     inkscape:window-height="1052"
     inkscape:window-x="45"
     inkscape:window-y="0"
     inkscape:window-maximized="1"
     inkscape:current-layer="layer1" /><defs
     id="defs1" /><g
     inkscape:label="Layer 1"
     inkscape:groupmode="layer"
     id="layer1"><rect
       style="fill:#f3d3ad;fill-opacity:1;stroke-width:2;stroke-linecap:round;stroke-linejoin:round"
       id="rect1-9-5"
       width="16.933332"
       height="16.933332"
       x="0"
       y="0"
       rx="0"
       ry="0" /><rect
       style="fill:#f3d3ad;fill-opacity:1;stroke-width:2;stroke-linecap:round;stroke-linejoin:round"
       id="rect1-6-1-1"
       width="16.933332"
       height="16.933332"
       x="16.933327"
       y="16.933334"
       rx="0"
       ry="0" /><rect
       style="fill:#f3d3ad;fill-opacity:1;stroke-width:2;stroke-linecap:round;stroke-linejoin:round"
       id="rect1-6-7-5-7"
       width="16.933332"
       height="16.933332"
       x="16.933327"
       y="0"
       rx="0"
       ry="0" /><rect
       style="fill:#f3d3ad;fill-opacity:1;stroke-width:2;stroke-linecap:round;stroke-linejoin:round"
       id="rect1-6-7-5-7-0"
       width="16.933332"
       height="16.933332"
       x="0"
       y="50.799999"
       rx="0"
       ry="0" /><rect
       style="fill:#f3d3ad;fill-opacity:1;stroke-width:2;stroke-linecap:round;stroke-linejoin:round"
       id="rect1-6-7-5-7-0-2"
       width="16.933332"
       height="16.933332"
       x="33.866673"
       y="50.799995"
       rx="0"
       ry="0" /><rect
       style="fill:#f3d3ad;fill-opacity:1;stroke-width:2;stroke-linecap:round;stroke-linejoin:round"
       id="rect1-6-7-5-7-0-4"
       width="16.933332"
       height="16.933332"
       x="16.933332"
       y="50.799999"
       rx="0"
       ry="0" /><rect
       style="fill:#f3d3ad;fill-opacity:1;stroke-width:2;stroke-linecap:round;stroke-linejoin:round"
       id="rect1-6-7-5-7-0-0"
       width="16.933332"
       height="16.933332"
       x="0"
       y="84.666664"
       rx="0"
       ry="0" /><rect
       style="fill:#f3d3ad;fill-opacity:1;stroke-width:2;stroke-linecap:round;stroke-linejoin:round"
       id="rect1-6-7-5-7-0-2-2"
       width="16.933332"
       height="16.933332"
       x="33.866673"
       y="84.666656"
       rx="0"
       ry="0" /><rect
       style="fill:#f3d3ad;fill-opacity:1;stroke-width:2;stroke-linecap:round;stroke-linejoin:round"
       id="rect1-6-7-5-7-0-2-2-7"
       width="16.933332"
       height="16.933332"
       x="33.866673"
       y="67.73333"
       rx="0"
       ry="0" /><rect
       style="fill:#f3d3ad;fill-opacity:1;stroke-width:2;stroke-linecap:round;stroke-linejoin:round"
       id="rect1-6-7-5-7-0-2-2-7-8"
       width="16.933332"
       height="16.933332"
       x="0"
       y="67.73333"
       rx="0"
       ry="0" /><rect
       style="fill:#f3d3ad;fill-opacity:1;stroke-width:2;stroke-linecap:round;stroke-linejoin:round"
       id="rect1-6-7-5-7-0-4-4"
       width="16.933332"
       height="16.933332"
       x="16.933332"
       y="84.666664"
       rx="0"
       ry="0" /><rect
       style="fill:#f3d3ad;fill-opacity:1;stroke-width:2;stroke-linecap:round;stroke-linejoin:round"
       id="rect1-6-7-5-7-0-4-5-6"
       width="16.933332"
       height="16.933332"
       x="16.933332"
       y="67.73333"
       rx="0"
       ry="0" /><rect
       style="fill:#f3d3ad;fill-opacity:1;stroke-width:2;stroke-linecap:round;stroke-linejoin:round"
       id="rect1-6-7-5-7-1"
       width="16.933332"
       height="16.933332"
       x="50.799999"
       y="16.933334"
       rx="0"
       ry="0" /><rect
       style="fill:#f3d3ad;fill-opacity:1;stroke-width:2;stroke-linecap:round;stroke-linejoin:round"
       id="rect1-6-7-5-7-1-2"
       width="16.933332"
       height="16.933332"
       x="67.733337"
       y="4.4408921e-16"
       rx="0"
       ry="0"
       inkscape:label="rect1-6-7-5-7-1-2" /><rect
       style="fill:#f3d3ad;fill-opacity:1;stroke-width:2;stroke-linecap:round;stroke-linejoin:round"
       id="rect1-6-7-5-7-1-5"
       width="16.933332"
       height="16.933332"
       x="67.73333"
       y="16.933336"
       rx="0"
       ry="0"
       inkscape:label="rect1-6-7-5-7-1-5" /><rect
       style="fill:#f3d3ad;fill-opacity:1;stroke-width:2;stroke-linecap:round;stroke-linejoin:round"
       id="rect1-6-7-5-7-1-5-9"
       width="16.933332"
       height="16.933332"
       x="67.73333"
       y="33.866669"
       rx="0"
       ry="0" /><rect
       style="fill:#f3d3ad;fill-opacity:1;stroke-width:2;stroke-linecap:round;stroke-linejoin:round"
       id="rect1-6-7-5-7-1-5-9-2"
       width="16.933332"
       height="16.933332"
       x="50.799995"
       y="33.866669"
       rx="0"
       ry="0" /><rect
       style="fill:#f3d3ad;fill-opacity:1;stroke-width:2;stroke-linecap:round;stroke-linejoin:round"
       id="rect1-6-7-2-2-5"
       width="16.933332"
       height="16.933332"
       x="33.866673"
       y="0"
       rx="0"
       ry="0" /><rect
       style="fill:#f3d3ad;fill-opacity:1;stroke-width:2;stroke-linecap:round;stroke-linejoin:round"
       id="rect1-6-7-2-8-4-9"
       width="16.933332"
       height="16.933332"
       x="33.866673"
       y="16.933334"
       rx="0"
       ry="0" /><rect
       style="fill:#f3d3ad;fill-opacity:1;stroke-width:2;stroke-linecap:round;stroke-linejoin:round"
       id="rect1-6-7-2-1-9-1"
       width="16.933332"
       height="16.933332"
       x="0"
       y="16.933334"
       rx="0"
       ry="0" /><rect
       style="fill:#f3d3ad;fill-opacity:1;stroke-width:2;stroke-linecap:round;stroke-linejoin:round"
       id="rect1-6-7-2-4-4-5"
       width="16.933332"
       height="16.933332"
       x="0"
       y="33.866665"
       rx="0"
       ry="0" /><rect
       style="fill:#f3d3ad;fill-opacity:1;stroke-width:2;stroke-linecap:round;stroke-linejoin:round"
       id="rect1-6-7-2-3-8-4"
       width="16.933332"
       height="16.933332"
       x="16.933334"
       y="33.866665"
       rx="0"
       ry="0" /><rect
       style="fill:#f3d3ad;fill-opacity:1;stroke-width:2;stroke-linecap:round;stroke-linejoin:round"
       id="rect1-6-7-2-47-7-5"
       width="16.933332"
       height="16.933332"
       x="33.866673"
       y="33.866665"
       rx="0"
       ry="0" /><g
       id="rect1"><path
         style="color:#000000;fill:#141523;stroke-linecap:round;stroke-linejoin:round;-inkscape-stroke:none;paint-order:stroke fill markers"
         d="m 23.851562,8.5839844 c -0.09236,-0.010295 -0.185707,-0.00767 -0.277343,0.00781 l -6.804688,1.1367187 c -0.01373,0.00232 -0.0274,0.00492 -0.04102,0.00781 L 11.585938,10.8125 c -0.492443,0.102667 -0.831996,0.555125 -0.792969,1.056641 l 0.40625,5.142578 c -2.3e-5,0.0039 -2.3e-5,0.0078 0,0.01172 l 0.501953,5.548829 -1.597656,5.164062 c -0.04841,0.157541 -0.05713,0.324603 -0.02539,0.486328 l 1.109375,5.701172 -0.394531,5.007813 c -0.04697,0.603351 0.448495,1.109846 1.052734,1.076171 l 4.980469,-0.279296 4.919922,1.347656 c 0.228253,0.06217 0.471153,0.04141 0.685547,-0.05859 l 5.30664,-2.464844 5.9375,1.150391 c 0.04452,0.0083 0.08954,0.01348 0.134766,0.01563 l 5.142578,0.289062 c 0.595818,0.03351 1.088201,-0.458869 1.054687,-1.054687 L 39.71875,33.810547 c -0.0027,-0.05453 -0.0099,-0.10875 -0.02148,-0.16211 l -1.03125,-4.615234 2.210937,-7.628906 c 0.05258,-0.180399 0.05327,-0.371961 0.002,-0.552735 l -1.15039,-4.03125 0.279296,-4.974609 c 0.02688,-0.492919 -0.309911,-0.93172 -0.793019,-1.033203 L 34.072266,9.7363281 c -0.03099,-0.00669 -0.06227,-0.011905 -0.09375,-0.015625 z m -0.08594,2.0039066 9.943359,1.115234 4.253907,0.890625 -0.240235,4.283203 c -0.0061,0.111325 0.0064,0.22289 0.03711,0.330078 l 1.117187,3.916016 -2.203125,7.599609 c -0.04681,0.161424 -0.05219,0.332043 -0.01563,0.496094 l 1.068359,4.785156 0.222657,3.945313 -3.958985,-0.222657 -6.189453,-1.199218 c -0.20651,-0.04018 -0.420431,-0.0142 -0.611328,0.07422 l -5.269531,2.447266 -4.722656,-1.292969 c -0.104277,-0.0283 -0.21245,-0.03951 -0.320313,-0.0332 l -4,0.22461 0.316406,-4.001954 c 0.007,-0.09014 0.0017,-0.180807 -0.01563,-0.269531 l -1.089843,-5.589844 1.582031,-5.113281 c 0.03859,-0.124362 0.05252,-0.255063 0.04102,-0.384765 l -0.519532,-5.738282 -0.333984,-4.259765 4.259765,-0.892578 z"
         id="path9"
         sodipodi:nodetypes="ccccccccccccccccccccccccccccccccccccccccccccccccccccccccccc" /><path
         style="color:#000000;fill:#2c2d4a;stroke-linecap:round;stroke-linejoin:round;-inkscape-stroke:none;paint-order:stroke fill markers"
         d="M 0,0 V 16.933333 33.866667 50.8 H 16.933333 33.866667 50.8 V 33.866667 16.933333 0 H 33.866667 16.933333 Z m 23.739636,9.5782267 10.127031,1.1363643 5.142838,1.075904 -0.288871,5.142838 1.196309,4.191993 -2.283581,7.874971 1.087272,4.86637 0.288871,5.142838 -5.142838,-0.288871 -6.255949,-1.211296 -5.601209,2.601392 -5.076176,-1.390096 -5.142838,0.288871 0.405143,-5.142838 -1.136365,-5.835303 1.655196,-5.353162 -0.518831,-5.744869 -0.405143,-5.142838 5.142838,-1.075904 z"
         id="path10"
         inkscape:label="path10" /></g><rect
       style="fill:#2c2d4a;stroke-width:2;stroke-linecap:round;stroke-linejoin:round;fill-opacity:1"
       id="rect1-6-7-2-34"
       width="16.933332"
       height="16.933332"
       x="50.799999"
       y="0"
       rx="0"
       ry="0" /><g
       id="rect1-6-7-2-34-4-4"><path
         style="color:#000000;fill:#2c2d4a;stroke-linecap:round;stroke-linejoin:round;-inkscape-stroke:none"
         d="M 50.8,16.933333 V 33.866667 L 67.733333,16.933333 Z m 16.933333,0 16.933334,16.933334 V 16.933333 Z M 84.666667,33.866667 67.733333,50.8 H 84.666667 Z M 67.733333,50.8 50.8,33.866667 V 50.8 Z"
         id="path11" /><path
         id="path12"
         style="color:#000000;fill:#141523;stroke-linecap:round;stroke-linejoin:round;-inkscape-stroke:none"
         d="M 67.232589 16.933333 L 50.8 33.367989 L 50.8 34.366378 L 67.231555 50.8 L 68.233044 50.8 L 84.666667 34.366378 L 84.666667 33.367989 L 68.232011 16.933333 L 67.232589 16.933333 z M 66.525138 17.433561 L 51.300745 32.660022 L 66.525138 17.433561 z M 68.939461 17.433561 L 84.165922 32.660022 L 68.939461 17.433561 z M 67.7323 17.640784 L 83.959216 33.867183 L 67.7323 50.093583 L 51.507967 33.867183 L 67.7323 17.640784 z M 51.300745 35.074345 L 66.525138 50.300806 L 51.300745 35.074345 z M 84.165922 35.074345 L 68.939461 50.300806 L 84.165922 35.074345 z " /></g><rect
       style="fill:#2c2d4a;fill-opacity:1;stroke:#141523;stroke-width:1;stroke-linecap:round;stroke-linejoin:bevel;stroke-opacity:1;stroke-dasharray:none"
       id="rect1-6-7-2-34-8"
       width="12.269085"
       height="12.269085"
       x="70.065453"
       y="2.3321245"
       rx="0"
       ry="0" /><rect
       style="fill:#2c2d4a;fill-opacity:1;stroke-width:2;stroke-linecap:round;stroke-linejoin:round"
       id="rect1-9"
       width="16.933332"
       height="16.933332"
       x="-115.8875"
       y="-29.104168"
       rx="0"
       ry="0" /><rect
       style="fill:#ffffff;stroke-width:2;stroke-linecap:round;stroke-linejoin:round"
       id="rect1-6-1"
       width="16.933332"
       height="16.933332"
       x="-98.95417"
       y="-12.170835"
       rx="0"
       ry="0" /><rect
       style="fill:#2c2d4a;fill-opacity:1;stroke-width:2;stroke-linecap:round;stroke-linejoin:round"
       id="rect1-6-7-5"
       width="16.933332"
       height="16.933332"
       x="-98.95417"
       y="-29.104168"
       rx="0"
       ry="0" /><rect
       style="fill:#2c2d4a;fill-opacity:1;stroke-width:2;stroke-linecap:round;stroke-linejoin:round"
       id="rect1-6-7-2-2"
       width="16.933332"
       height="16.933332"
       x="-82.020828"
       y="-29.104168"
       rx="0"
       ry="0" /><rect
       style="fill:#2c2d4a;fill-opacity:1;stroke-width:2;stroke-linecap:round;stroke-linejoin:round"
       id="rect1-6-7-2-34-0"
       width="16.933332"
       height="16.933332"
       x="-65.087502"
       y="-29.104168"
       rx="0"
       ry="0" /><rect
       style="fill:#2c2d4a;fill-opacity:1;stroke-width:2;stroke-linecap:round;stroke-linejoin:round"
       id="rect1-6-7-2-8-4"
       width="16.933332"
       height="16.933332"
       x="-82.020828"
       y="-12.170835"
       rx="0"
       ry="0" /><rect
       style="fill:#2c2d4a;fill-opacity:1;stroke-width:2;stroke-linecap:round;stroke-linejoin:round"
       id="rect1-6-7-2-1-9"
       width="16.933332"
       height="16.933332"
       x="-115.8875"
       y="-12.170835"
       rx="0"
       ry="0" /><rect
       style="fill:#2c2d4a;fill-opacity:1;stroke-width:2;stroke-linecap:round;stroke-linejoin:round"
       id="rect1-6-7-2-4-4"
       width="16.933332"
       height="16.933332"
       x="-115.8875"
       y="4.7624979"
       rx="0"
       ry="0" /><rect
       style="fill:#2c2d4a;fill-opacity:1;stroke-width:2;stroke-linecap:round;stroke-linejoin:round"
       id="rect1-6-7-2-3-8"
       width="16.933332"
       height="16.933332"
       x="-98.954163"
       y="4.7624979"
       rx="0"
       ry="0" /><rect
       style="fill:#2c2d4a;fill-opacity:1;stroke-width:2;stroke-linecap:round;stroke-linejoin:round"
       id="rect1-6-7-2-47-7"
       width="16.933332"
       height="16.933332"
       x="-82.020828"
       y="4.7624979"
       rx="0"
       ry="0" /><path
       id="rect2-6"
       style="fill:#b6b6b6;fill-opacity:1;stroke:#141523;stroke-width:1;stroke-linecap:round;stroke-linejoin:round;stroke-dasharray:none;stroke-opacity:1"
       d="m -104.09679,-17.313466 5.142622,-1.076365 6.80649,-1.136163 10.126843,1.136163 5.142639,1.076365 -0.288505,5.142631 1.195961,4.191889 -2.283192,7.874941 1.087231,4.866503 0.288505,5.142631 -5.142639,-0.288504 -6.255846,-1.211526 -5.6013,2.60148 -5.076187,-1.389954 -5.142622,0.288504 0.40472,-5.142631 -1.13616,-5.835553 1.65501,-5.353035 -0.51885,-5.744745 z"
       sodipodi:nodetypes="cccccccccccccccccccc" /><path
       id="rect2-6-0"
       style="fill:#2c2d4a;fill-opacity:1;stroke:#141523;stroke-width:1;stroke-linecap:round;stroke-linejoin:round;stroke-dasharray:none;stroke-opacity:1"
       d="m 11.702694,63.146239 5.142622,-1.076365 6.80649,-1.136163 10.126843,1.136163 5.142639,1.076365 -0.288505,5.142631 1.195961,4.191889 -2.283192,7.874941 1.087231,4.866503 0.288505,5.142631 -5.142639,-0.288504 -6.255846,-1.211526 -5.6013,2.60148 -5.076187,-1.389954 -5.142622,0.288504 0.40472,-5.142631 -1.13616,-5.835553 1.65501,-5.353035 -0.51885,-5.744745 z"
       sodipodi:nodetypes="cccccccccccccccccccc" /></g></svg>
