<?xml version="1.0" encoding="UTF-8" standalone="no"?>
<!-- Created with Inkscape (http://www.inkscape.org/) -->

<svg
   width="719.96442"
   height="720.04187"
   viewBox="0 0 190.49058 190.51108"
   version="1.1"
   id="svg1"
   sodipodi:docname="cortinilla.svg"
   inkscape:version="1.3 (0e150ed6c4, 2023-07-21)"
   xmlns:inkscape="http://www.inkscape.org/namespaces/inkscape"
   xmlns:sodipodi="http://sodipodi.sourceforge.net/DTD/sodipodi-0.dtd"
   xmlns="http://www.w3.org/2000/svg"
   xmlns:svg="http://www.w3.org/2000/svg">
  <sodipodi:namedview
     id="namedview1"
     pagecolor="#ffffff"
     bordercolor="#000000"
     borderopacity="0.25"
     inkscape:showpageshadow="2"
     inkscape:pageopacity="0.0"
     inkscape:pagecheckerboard="0"
     inkscape:deskcolor="#d1d1d1"
     inkscape:document-units="mm"
     inkscape:zoom="0.75544333"
     inkscape:cx="211.1343"
     inkscape:cy="461.98039"
     inkscape:window-width="1920"
     inkscape:window-height="1017"
     inkscape:window-x="-8"
     inkscape:window-y="-8"
     inkscape:window-maximized="1"
     inkscape:current-layer="layer1" />
  <defs
     id="defs1" />
  <g
     inkscape:label="Layer 1"
     inkscape:groupmode="layer"
     id="layer1"
     transform="translate(-0.54054338,-0.15137716)">
    <rect
       style="fill:#535796;fill-opacity:1;stroke-width:0.240844"
       id="rect1"
       width="137.54991"
       height="190.50078"
       x="25.600771"
       y="0.1616793"
       ry="0.019064682" />
    <rect
       style="fill:#535796;fill-opacity:1;stroke-width:0.240844"
       id="rect2"
       width="5.1615601"
       height="2.2300026"
       x="22.134819"
       y="0.15137716"
       ry="0.019064682" />
    <rect
       style="fill:#535796;fill-opacity:1;stroke-width:0.240844"
       id="rect3"
       width="4.3485889"
       height="6.6031666"
       x="22.929241"
       y="45.2495"
       ry="0.019064682" />
    <rect
       style="fill:#535796;fill-opacity:1;stroke-width:0.240844"
       id="rect4"
       width="6.1551561"
       height="7.9073644"
       x="21.882854"
       y="93.102539"
       ry="0.019064682" />
    <rect
       style="fill:#535796;fill-opacity:1;stroke-width:0.240844"
       id="rect5"
       width="6.1285281"
       height="7.2283454"
       x="22.155754"
       y="139.55988"
       ry="0.019064682" />
    <rect
       style="fill:#535796;fill-opacity:1;stroke-width:0.240844"
       id="rect6"
       width="2.0063574"
       height="1.9254034"
       x="24.210432"
       y="188.73224"
       ry="0.019064682" />
    <rect
       style="fill:#535796;fill-opacity:1;stroke-width:0.240844"
       id="rect7"
       width="14.966075"
       height="21.484604"
       x="159.80988"
       y="157.18636"
       ry="0.019064682" />
    <rect
       style="fill:#535796;fill-opacity:1;stroke-width:0.240844"
       id="rect8"
       width="13.335054"
       height="17.671848"
       x="158.18036"
       y="111.44539"
       ry="0.019064682" />
    <rect
       style="fill:#535796;fill-opacity:1;stroke-width:0.240844"
       id="rect9"
       width="16.272207"
       height="16.116991"
       x="156.74135"
       y="65.903824"
       ry="0.019064682" />
    <rect
       style="fill:#535796;fill-opacity:1;stroke-width:0.240844"
       id="rect10"
       width="11.228824"
       height="18.398434"
       x="157.53696"
       y="16.309072"
       ry="0.019064682" />
    <path
       stroke="none"
       fill="#000000"
       d="m 167.21981,0.16076778 23.81132,23.81132622 -23.81132,23.811329 23.81132,23.811318 -23.81132,23.811334 23.81132,23.811305 -23.81132,23.81134 23.81132,23.81133 -23.81132,23.81133 H 143.40848 L 167.21981,166.84005 143.40848,143.02872 167.21981,119.21738 143.40848,95.406075 167.21981,71.594741 143.40848,47.783423 167.21981,23.972094 143.40848,0.16076778 h 23.81133 M 119.59717,190.65138 H 95.785833 L 119.59717,166.84005 95.785833,143.02872 119.59717,119.21738 95.785833,95.406075 119.59717,71.594741 95.785833,47.783423 119.59717,23.972094 95.785833,0.16076778 h 23.811337 l 23.81131,23.81132622 -23.81131,23.811329 23.81131,23.811318 -23.81131,23.811334 23.81131,23.811305 -23.81131,23.81134 23.81131,23.81133 -23.81131,23.81133 m -47.622662,0 H 48.163189 L 71.974508,166.84005 48.163189,143.02872 71.974508,119.21738 48.163189,95.406075 71.974508,71.594741 48.163189,47.783423 71.974508,23.972094 48.163189,0.16076778 H 71.974508 L 95.785833,23.972094 71.974508,47.783423 95.785833,71.594741 71.974508,95.406075 95.785833,119.21738 71.974508,143.02872 95.785833,166.84005 71.974508,190.65138 m -47.622646,0 H 0.54054338 L 24.351862,166.84005 0.54054338,143.02872 24.351862,119.21738 0.54054338,95.406075 24.351862,71.594741 0.54054338,47.783423 24.351862,23.972094 0.54054338,0.16076778 H 24.351862 L 48.163189,23.972094 24.351862,47.783423 48.163189,71.594741 24.351862,95.406075 48.163189,119.21738 24.351862,143.02872 48.163189,166.84005 24.351862,190.65138"
       id="path107"
       style="display:inline;fill:#595ca3;fill-opacity:1;stroke-width:2.97641" />
  </g>
</svg>
