<?xml version="1.0" encoding="UTF-8" standalone="no"?>
<!-- Created with Inkscape (http://www.inkscape.org/) -->

<svg
   width="210mm"
   height="297mm"
   viewBox="0 0 210 297"
   version="1.1"
   id="svg1"
   sodipodi:docname="cortinilla.svg"
   inkscape:version="1.3 (0e150ed6c4, 2023-07-21)"
   xmlns:inkscape="http://www.inkscape.org/namespaces/inkscape"
   xmlns:sodipodi="http://sodipodi.sourceforge.net/DTD/sodipodi-0.dtd"
   xmlns="http://www.w3.org/2000/svg"
   xmlns:svg="http://www.w3.org/2000/svg">
  <sodipodi:namedview
     id="namedview1"
     pagecolor="#ffffff"
     bordercolor="#000000"
     borderopacity="0.25"
     inkscape:showpageshadow="2"
     inkscape:pageopacity="0.0"
     inkscape:pagecheckerboard="0"
     inkscape:deskcolor="#d1d1d1"
     inkscape:document-units="mm"
     inkscape:zoom="0.5341791"
     inkscape:cx="310.7572"
     inkscape:cy="479.24002"
     inkscape:window-width="1875"
     inkscape:window-height="1052"
     inkscape:window-x="45"
     inkscape:window-y="0"
     inkscape:window-maximized="1"
     inkscape:current-layer="layer1" />
  <defs
     id="defs1" />
  <g
     inkscape:label="Layer 1"
     inkscape:groupmode="layer"
     id="layer1">
    <rect
       style="fill:#51548a;fill-opacity:1;stroke-width:0.264583"
       id="rect1"
       width="151.10774"
       height="209.2778"
       x="28.070873"
       y="0.16269474"
       ry="0.020943822" />
    <rect
       style="fill:#51548a;fill-opacity:1;stroke-width:0.264583"
       id="rect2"
       width="5.6703176"
       height="2.4498065"
       x="24.263294"
       y="0.15137716"
       ry="0.020943822" />
    <rect
       style="fill:#51548a;fill-opacity:1;stroke-width:0.264583"
       id="rect3"
       width="4.7772145"
       height="7.2540183"
       x="25.136021"
       y="49.694672"
       ry="0.020943822" />
    <rect
       style="fill:#51548a;fill-opacity:1;stroke-width:0.264583"
       id="rect4"
       width="6.7618489"
       height="8.6867666"
       x="23.986494"
       y="102.26442"
       ry="0.020943822" />
    <rect
       style="fill:#51548a;fill-opacity:1;stroke-width:0.264583"
       id="rect5"
       width="6.7325964"
       height="7.9408188"
       x="24.286293"
       y="153.3009"
       ry="0.020943822" />
    <rect
       style="fill:#51548a;fill-opacity:1;stroke-width:0.264583"
       id="rect6"
       width="2.2041173"
       height="2.1151838"
       x="26.543493"
       y="207.32002"
       ry="0.020943822" />
    <rect
       style="fill:#51548a;fill-opacity:1;stroke-width:0.264583"
       id="rect7"
       width="16.441231"
       height="23.602268"
       x="175.50851"
       y="172.66476"
       ry="0.020943822" />
    <rect
       style="fill:#51548a;fill-opacity:1;stroke-width:0.264583"
       id="rect8"
       width="14.649446"
       height="19.413702"
       x="173.71838"
       y="122.41527"
       ry="0.020943822" />
    <rect
       style="fill:#51548a;fill-opacity:1;stroke-width:0.264583"
       id="rect9"
       width="17.876104"
       height="17.705589"
       x="172.13754"
       y="72.384819"
       ry="0.020943822" />
    <rect
       style="fill:#51548a;fill-opacity:1;stroke-width:0.264583"
       id="rect10"
       width="12.335611"
       height="20.211905"
       x="173.01157"
       y="17.901682"
       ry="0.020943822" />
    <path
       stroke="none"
       fill="#000000"
       d="m 183.64882,0.16169338 26.15833,26.15832862 -26.15833,26.158331 26.15833,26.158319 -26.15833,26.158338 26.15833,26.15831 -26.15833,26.15834 26.15833,26.15833 -26.15833,26.15833 H 157.49049 L 183.64882,183.26999 157.49049,157.11166 183.64882,130.95332 157.49049,104.79501 183.64882,78.636672 157.49049,52.478353 183.64882,26.320022 157.49049,0.16169338 h 26.15833 M 131.33218,209.42832 H 105.17384 L 131.33218,183.26999 105.17384,157.11166 131.33218,130.95332 105.17384,104.79501 131.33218,78.636672 105.17384,52.478353 131.33218,26.320022 105.17384,0.16169338 h 26.15834 l 26.15831,26.15832862 -26.15831,26.158331 26.15831,26.158319 -26.15831,26.158338 26.15831,26.15831 -26.15831,26.15834 26.15831,26.15833 -26.15831,26.15833 m -52.316667,0 H 52.857193 L 79.015513,183.26999 52.857193,157.11166 79.015513,130.95332 52.857193,104.79501 79.015513,78.636672 52.857193,52.478353 79.015513,26.320022 52.857193,0.16169338 h 26.15832 L 105.17384,26.320022 79.015513,52.478353 105.17384,78.636672 79.015513,104.79501 l 26.158327,26.15831 -26.158327,26.15834 26.158327,26.15833 -26.158327,26.15833 m -52.31665,0 H 0.54054338 L 26.698863,183.26999 0.54054338,157.11166 26.698863,130.95332 0.54054338,104.79501 26.698863,78.636672 0.54054338,52.478353 26.698863,26.320022 0.54054338,0.16169338 H 26.698863 l 26.15833,26.15832862 -26.15833,26.158331 26.15833,26.158319 -26.15833,26.158338 26.15833,26.15831 -26.15833,26.15834 26.15833,26.15833 -26.15833,26.15833"
       id="path107"
       style="display:inline;fill:#4a4c7d;fill-opacity:1;stroke-width:3.26979" />
  </g>
</svg>
