<?xml version="1.0" encoding="UTF-8" standalone="no"?>
<svg
   height="48"
   width="48"
   version="1.1"
   id="svg7"
   sodipodi:docname="mouse-head.svg"
   xml:space="preserve"
   inkscape:version="1.3 (0e150ed6c4, 2023-07-21)"
   xmlns:inkscape="http://www.inkscape.org/namespaces/inkscape"
   xmlns:sodipodi="http://sodipodi.sourceforge.net/DTD/sodipodi-0.dtd"
   xmlns="http://www.w3.org/2000/svg"
   xmlns:svg="http://www.w3.org/2000/svg"><defs
     id="defs7" /><sodipodi:namedview
     id="namedview7"
     pagecolor="#505050"
     bordercolor="#eeeeee"
     borderopacity="1"
     inkscape:showpageshadow="0"
     inkscape:pageopacity="0"
     inkscape:pagecheckerboard="0"
     inkscape:deskcolor="#505050"
     inkscape:zoom="13.71875"
     inkscape:cx="22.1959"
     inkscape:cy="41.18451"
     inkscape:window-width="1920"
     inkscape:window-height="1017"
     inkscape:window-x="-8"
     inkscape:window-y="-8"
     inkscape:window-maximized="1"
     inkscape:current-layer="svg7" /><path
     id="path22-1-0"
     style="fill:none;fill-opacity:1;stroke:#8a6d9b;stroke-width:2.92011;stroke-linecap:round;stroke-linejoin:round;stroke-opacity:1"
     d="m 39.440237,5.5117203 c 0,0 -3.070803,0.951368 -4.728515,1.929688 -1.338399,0.789873 -1.948493,2.7751857 -2.13672,3.5195307 L 29.617971,9.6855483 28.908987,10.599611 25.682424,9.9179703 24.739065,12.328127 c -1.2514,0.604405 -2.076172,1.167969 -2.076172,1.167969 0,0 -1.081856,0.198891 -2.318359,1.042969 -3.136903,-1.931031 -8.798985,-4.5779957 -9.75,-5.1933607 -1.3066843,-0.845506 -2.6894533,0.8457037 -2.6894533,0.8457037 0,0 0.336265,0.0699 0.820313,0.203124 -0.228313,-0.05617 -0.676583,-0.168754 -0.820313,-0.203124 -1.250077,-0.2989317 -1.087686,4.945266 -1.060546,7.146485 0.02717,2.20122 3.9416273,7.06562 5.8710923,8.832031 0.685542,0.627608 1.624977,0.883398 2.578125,0.941406 -0.590039,1.891219 -1.009765,3.294922 -1.009765,3.294922 l -6.7734373,6.47461 -5.050781,3.455078 7.6093753,2.152343 20.812499,-4.140624 2.121094,1.705078 0.728515,-0.07617 1.53711,-2.306641 c 0,0 -0.07617,-0.577693 -0.07617,-1.384765 0,-0.164295 -0.128971,-0.460293 -0.332031,-0.828126 l 3.509766,-0.800781 0.742187,0.13086 0.248047,-0.357422 3.236328,-0.738281 0.480469,-0.730469 1.152344,0.578125 0.845703,-0.173828 c 0,0 0.385144,-0.191414 0.289062,-0.78711 -0.09604,-0.595697 0.653205,-2.152541 -0.365234,-2.998047 -0.580529,-0.481945 -1.235559,-0.709727 -1.697266,-0.820312 l 0.191407,-0.275391 c 0,0 -0.578224,-0.35193 -1.285157,-0.804687 l -0.607422,-0.923828 -0.398437,0.261718 c -0.52538,-0.359017 -1.050715,-0.739391 -1.511719,-1.113281 l 0.509766,-0.257812 -1.460938,-1.382813 c 0,0 -0.154871,0.05262 -0.361328,0.125 -0.115688,-0.314941 -0.138072,-0.651828 -0.117187,-1.009765 0.381155,0.02378 0.711311,0.04105 0.880859,0.04101 0.893326,-1.69e-4 1.846574,-0.97685 2.933594,-3.232422 1.087008,-2.255569 0.21726,-4.838881 0.298828,-8.154297 0.08153,-3.3154177 -2.933594,-6.5214847 -2.933594,-6.5214847 z" /><g
     id="g1"
     transform="matrix(0.3863054,0,0,0.3863054,17.62654,13.679445)"><path
       style="fill:#79304e;fill-opacity:1;stroke:none;stroke-width:7.55907;stroke-linecap:round;stroke-linejoin:round;stroke-opacity:1"
       d="m 34.991008,62.847609 0.646641,-4.427142 29.000257,-6.615831 1.24356,-1.890241 2.9846,1.492297 2.18868,-0.447689 c 0,0 0.99488,-0.497432 0.74616,-2.039468 -0.24861,-1.542037 1.69124,-5.571231 -0.94512,-7.759928 -2.6364,-2.188697 -5.91944,-2.387669 -5.91944,-2.387669 L 24.246484,48.22313 Z"
       id="path22-1" /><path
       style="fill:#272743;fill-opacity:1;stroke:none;stroke-width:7.55907;stroke-linecap:round;stroke-linejoin:round;stroke-opacity:1"
       d="m 38.506711,-6.245577 c 0,0 1.428354,-7.370669 5.719555,-9.903177 4.2912,-2.532504 12.24043,-4.994665 12.24043,-4.994665 0,0 7.80857,8.300992 7.59752,16.883375 -0.21115,8.582378 2.04006,15.265382 -0.7738,21.104213 -2.81389,5.838835 -5.28503,8.370903 -7.59752,8.371339 C 53.38038,25.215945 41.412368,24.1603 41.412368,24.1603"
       id="path9-5" /><path
       style="fill:#c59da5;fill-opacity:1;stroke:none;stroke-width:7.55907;stroke-linecap:round;stroke-linejoin:round;stroke-opacity:1"
       d="m 13.038259,-0.475378 c 0,0 14.524967,-9.948621 25.468452,-5.770199 10.943484,4.178422 17.907525,15.917795 16.713685,22.483886 -1.19384,6.566091 -3.38252,10.147596 -0.19881,13.530126 3.18357,3.382533 11.93833,8.555815 11.93833,8.555815 l -11.3414,16.315743 -9.331307,-1.646701 -8.829654,-6.114203 -9.677959,2.901944 -61.373152,17.360626 24.9439599,-23.843099 c 0,0 11.142446,-37.605792 14.723967,-40.391405 3.581482,-2.785613 6.9640421,-3.382533 6.9640421,-3.382533 z"
       id="path7-4"
       sodipodi:nodetypes="cssscccccccscc" /><path
       style="fill:#8a6d9b;fill-opacity:1;stroke:none;stroke-width:7.55907;stroke-linecap:round;stroke-linejoin:round;stroke-opacity:1"
       d="m 3.9594209,30.292997 c 0,0 1.618012,1.688339 0.07026,2.673201 -1.547638,0.984862 -11.748013,3.939453 -16.7426779,-0.633126 -4.994666,-4.572583 -15.124705,-17.164765 -15.19504,-22.862903 -0.07026,-5.698138 -0.492422,-19.275182 2.743563,-18.501359 3.235945,0.773819 16.0391739,4.009799 16.0391739,4.009799 l 15.19504,16.461289 z"
       id="path10-2" /><path
       style="fill:#4a4c7d;fill-opacity:1;stroke:none;stroke-width:7.55907;stroke-linecap:round;stroke-linejoin:round;stroke-opacity:1"
       d="m 5.5022719,27.748016 c 0,0 -6.33126005,-2.180771 -7.59752,-5.205709 -1.266221,-3.024937 -9.8486229,-10.692799 -9.8486229,-10.692799 0,0 9.5672449,5.416748 9.2154929,2.88424 C -3.0800521,12.201244 -10.818319,2.07122 -10.818319,2.07122 L 5.5726459,13.11576 Z"
       id="path11-4" /><path
       style="fill:#272743;fill-opacity:1;stroke:none;stroke-width:7.55907;stroke-linecap:round;stroke-linejoin:round;stroke-opacity:1"
       d="m 10.252619,18.625978 c -6.5660831,0 -5.6203071,2.660029 -9.57519715,-4.042242 C -3.2775071,7.881465 -7.8538691,1.544326 -12.032272,-2.863047 -16.210713,-7.27042 -25.164476,-9.03119 -25.164476,-9.03119 c 0,0 3.58152,-4.377398 6.964042,-2.188697 3.382522,2.188697 29.845892,14.326014 30.641773,17.90752 0.79588,3.581501 -2.18872,11.938345 -2.18872,11.938345 z"
       id="path8-5" /><path
       style="fill:#8a6d9b;fill-opacity:1;stroke:none;stroke-width:7.55907;stroke-linecap:round;stroke-linejoin:round;stroke-opacity:1"
       d="M 40.889797,-6.089076 52.778518,0.418056 49.404412,2.036045 61.220216,7.347275 51.688134,8.402484 57.315926,16 48.487317,11.146031 27.875525,-5.842861 l -8.253117,4.999305 -1.24109,-2.574006 2.474576,-6.32125 8.34866,1.764572 1.837856,-2.363272 z"
       id="path12-2"
       sodipodi:nodetypes="cccccccccccccc" /><path
       style="fill:#8a6d9b;fill-opacity:1;stroke:none;stroke-width:7.55907;stroke-linecap:round;stroke-linejoin:round;stroke-opacity:1"
       d="m 33.514014,24.893612 3.681001,7.36198 4.476882,0.397944 -3.681001,-13.132182 -12.137325,-1.691265 z"
       id="path13-5" /><path
       style="fill:#494c7d;fill-opacity:1;stroke:none;stroke-width:7.55907;stroke-linecap:round;stroke-linejoin:round;stroke-opacity:1"
       d="m 19.974623,31.476426 13.788111,5.205705 -3.658071,3.51737 z"
       id="path14-7" /><path
       style="fill:#494c7d;fill-opacity:1;stroke:none;stroke-width:7.55907;stroke-linecap:round;stroke-linejoin:round;stroke-opacity:1"
       d="m 62.058436,33.847372 -10.44608,6.864551 c 0,0 5.17332,3.681013 5.67072,3.879962 0.25092,0.100291 1.23465,-0.0017 2.14881,-0.127429 0.43556,-0.05991 -0.16484,3.814201 0.15209,3.762751 0.33778,-0.05478 1.57887,-4.033282 1.57887,-4.033282 l 3.18356,-6.864551 z"
       id="path15-1"
       sodipodi:nodetypes="ccsssccc" /><path
       style="fill:#494c7d;fill-opacity:1;stroke:none;stroke-width:7.55907;stroke-linecap:round;stroke-linejoin:round;stroke-opacity:1"
       d="m 54.652316,27.397492 c 0,0 -10.247086,3.38253 -9.849127,5.173286 0.397921,1.790753 4.576362,2.984586 4.576362,2.984586 l 9.053245,-4.576366 z"
       id="path16-2" /><path
       style="fill:#782f4e;fill-opacity:1;stroke:none;stroke-width:7.55907;stroke-linecap:round;stroke-linejoin:round;stroke-opacity:1"
       d="m 45.671489,62.101455 -3.979287,5.969184 -1.890241,0.19896 -26.363851,-21.190573 2.586641,-5.770202 z"
       id="path18-6" /><path
       style="fill:#d44475;fill-opacity:1;stroke:none;stroke-width:7.55907;stroke-linecap:round;stroke-linejoin:round;stroke-opacity:1"
       d="m 16.024751,41.308835 c 0,0 18.504448,1.989725 20.096248,3.482018 1.591761,1.492296 9.351684,11.639889 9.351684,13.729102 0,2.08921 0.198806,3.5815 0.198806,3.5815 l -1.98972,0.895384 z"
       id="path17-0" /><path
       style="fill:#eb7983;fill-opacity:1;stroke:none;stroke-width:7.55907;stroke-linecap:round;stroke-linejoin:round;stroke-opacity:1"
       d="m 18.393593,45.861063 -42.233365,12.597683 -15.420366,10.545543 19.698249,5.57123 55.513304,-11.04297 -0.924931,-5.503352 z"
       id="path19-2"
       sodipodi:nodetypes="ccccccc" /><path
       style="fill:#d34374;fill-opacity:1;stroke:none;stroke-width:7.55907;stroke-linecap:round;stroke-linejoin:round;stroke-opacity:1"
       d="m 24.395723,51.3072 -42.480618,12.286549 45.11698,-9.451192 -0.497401,-1.741009 z"
       id="path20-4" /><path
       style="fill:#d34374;fill-opacity:1;stroke:none;stroke-width:7.55907;stroke-linecap:round;stroke-linejoin:round;stroke-opacity:1"
       d="m 33.426269,57.901687 -1.195886,1.477295 -2.462185,-0.844169 -49.243153,12.521836 -15.406083,-1.96973 15.546792,4.43189 50.509412,-9.91898 1.055217,-1.19591 0.984842,0.84417 1.055217,-0.84417 z"
       id="path21-8" /></g></svg>
