<?xml version="1.0" encoding="UTF-8" standalone="no"?>
<!-- Created with Inkscape (http://www.inkscape.org/) -->

<svg
   width="429.80731"
   height="248.38025"
   viewBox="0 0 113.71985 65.717271"
   version="1.1"
   id="svg1"
   inkscape:export-filename="mermelada.jpg"
   inkscape:export-xdpi="96"
   inkscape:export-ydpi="96"
   inkscape:version="1.3 (0e150ed6c4, 2023-07-21)"
   sodipodi:docname="rat-and-furious-logo.svg"
   xml:space="preserve"
   xmlns:inkscape="http://www.inkscape.org/namespaces/inkscape"
   xmlns:sodipodi="http://sodipodi.sourceforge.net/DTD/sodipodi-0.dtd"
   xmlns="http://www.w3.org/2000/svg"
   xmlns:svg="http://www.w3.org/2000/svg"><sodipodi:namedview
     id="namedview1"
     pagecolor="#505050"
     bordercolor="#eeeeee"
     borderopacity="1"
     inkscape:showpageshadow="0"
     inkscape:pageopacity="0"
     inkscape:pagecheckerboard="0"
     inkscape:deskcolor="#505050"
     inkscape:document-units="mm"
     inkscape:zoom="0.78216892"
     inkscape:cx="69.678043"
     inkscape:cy="300.44661"
     inkscape:window-width="1920"
     inkscape:window-height="1017"
     inkscape:window-x="-8"
     inkscape:window-y="-8"
     inkscape:window-maximized="1"
     inkscape:current-layer="layer1" /><defs
     id="defs1" /><g
     inkscape:label="Layer 1"
     inkscape:groupmode="layer"
     id="layer1"
     transform="translate(-35.189581,-48.418752)"><g
       id="g59"
       transform="translate(-407.19375,-317.76458)"><path
         style="fill:#2c2d4a;fill-opacity:1;stroke:none;stroke-width:5;stroke-linecap:round;stroke-linejoin:miter;stroke-dasharray:none;stroke-opacity:1;paint-order:stroke fill markers"
         d="m 483.98674,382.31053 19.13538,5.74061 -8.96971,15.4279 -12.91638,-6.81698 -11.24203,6.57779 -18.42675,2.21561 8.26108,-15.49078 z"
         id="path24-8"
         sodipodi:nodetypes="cccccccc" /><path
         style="fill:#2c2d4a;fill-opacity:1;stroke:none;stroke-width:5;stroke-linecap:round;stroke-linejoin:miter;stroke-dasharray:none;stroke-opacity:1;paint-order:stroke fill markers"
         d="m 451.5762,412.80753 4.18587,14.11234 13.99274,-2.9899 13.27516,-0.47839 7.65415,1.79394 7.05617,-2.75071 6.45819,4.54465 29.77942,-2.75071 -24.75638,-8.13253 -33.96529,-2.39192 z"
         id="path25-0" /><path
         style="fill:#2c2d4a;fill-opacity:1;stroke:none;stroke-width:4.99999;stroke-linecap:round;stroke-linejoin:round;stroke-dasharray:none;stroke-opacity:1;paint-order:stroke fill markers"
         d="m 445.23761,371.1881 61.47239,16.86304 19.97254,-14.82991 -2.94813,14.04729 21.12674,-8.90466 -11.85779,15.48476 23.09982,-9.98334 -25.23478,20.21174 22.24488,3.82707 -21.04892,11.84001 -62.90753,-1.55475 -4.54465,-17.46102 -10.94106,-6.2188 z"
         id="path26-6"
         sodipodi:nodetypes="cccccccccccccc" /><path
         style="fill:#e6e6ff;fill-opacity:1;stroke:#2c2d4a;stroke-width:5;stroke-linecap:round;stroke-linejoin:miter;stroke-dasharray:none;stroke-opacity:1;paint-order:stroke fill markers"
         d="m 536.11303,416.75146 3.3404,0.25371 3.04442,-4.31293 -13.6576,-1.35308 -2.95985,8.58357 8.07617,2.24103 -5.49687,1.52221 -1.52221,-1.64906 -3.00213,0.0423 1.0148,4.05923 13.69988,0.97252 0.12685,-7.69561 -7.86474,-1.98733 1.26851,-1.8182 3.84781,0.38056 z"
         id="path23-5" /><path
         style="fill:#e6e6ff;fill-opacity:1;stroke:#2c2d4a;stroke-width:5;stroke-linecap:round;stroke-linejoin:miter;stroke-dasharray:none;stroke-opacity:1;paint-order:stroke fill markers"
         d="m 512.96923,415.21983 3.26354,10.08035 8.25776,-0.56002 -0.57945,-8.91723 -5.09779,-2.02469 3.19512,6.11714 -4.15513,3.40319 -1.38931,-9.39109 z"
         id="path9-3-6-5-2-6"
         sodipodi:nodetypes="ccccccccc" /><path
         style="fill:#e6e6ff;fill-opacity:1;stroke:#2c2d4a;stroke-width:5;stroke-linecap:round;stroke-linejoin:miter;stroke-dasharray:none;stroke-opacity:1;paint-order:stroke fill markers"
         d="m 496.45376,408.62489 26.72972,1.07636 -13.09577,3.52809 -0.77737,10.10587 14.35153,2.9301 -24.87599,-1.19596 6.81698,-2.57132 0.0598,-9.80687 z"
         id="path22-9" /><path
         id="path4-2-4-1-27"
         style="fill:#e6e6ff;fill-opacity:1;stroke:#2c2d4a;stroke-width:5;stroke-linecap:round;stroke-linejoin:miter;stroke-dasharray:none;stroke-opacity:1;paint-order:stroke fill markers"
         d="m 475.49134,410.47384 3.78503,2.89599 -3.02289,11.43194 3.26539,-2.74361 8.44569,3.26185 -5.3974,-5.24336 8.16468,-5.79216 z m 6.88795,4.20687 3.12584,0.70118 -4.35415,2.31683 z" /><path
         id="path4-2-4-1-2-8"
         style="fill:#e6e6ff;fill-opacity:1;stroke:#2c2d4a;stroke-width:5;stroke-linecap:round;stroke-linejoin:miter;stroke-dasharray:none;stroke-opacity:1;paint-order:stroke fill markers"
         d="m 489.27443,410.58139 3.78503,2.89599 -3.02289,11.43194 3.26539,-2.74361 8.44569,3.26185 -5.3974,-5.24336 8.16468,-5.79216 z m 6.88795,4.20688 3.12584,0.70117 -4.35415,2.31683 z" /><path
         id="path5-1-3-6"
         style="fill:#ffffff;stroke:#2c2d4a;stroke-width:5;stroke-linecap:round;stroke-linejoin:miter;stroke-dasharray:none;stroke-opacity:1;paint-order:stroke fill markers"
         d="m 490.47245,381.51657 -20.2649,22.64443 11.6668,-7.7508 10.55151,6.99082 z m -3.5313,7.34528 1.32558,6.43392 -3.86013,-2.4316 z" /><path
         style="fill:#ffffff;stroke:#2c2d4a;stroke-width:5;stroke-linecap:round;stroke-linejoin:miter;stroke-dasharray:none;stroke-opacity:1;paint-order:stroke fill markers"
         d="m 494.05945,382.57248 0.58857,5.44484 5.20986,0.14329 -5.65343,14.32852 12.21659,-14.97331 15.63654,-6.59112 z"
         id="path6-0-4-8" /><path
         id="path7-1-2-3"
         style="fill:#bdbde5;fill-opacity:1;stroke:#2c2d4a;stroke-width:5;stroke-linecap:round;stroke-linejoin:miter;stroke-dasharray:none;stroke-opacity:1;paint-order:stroke fill markers"
         d="m 507.91512,399.34677 4.21536,5.9635 -3.54127,-2.46153 -6.21375,2.43609 z m -0.31902,1.34489 -1.2445,1.87791 1.97269,-0.73593 z"
         sodipodi:nodetypes="ccccccccc" /><path
         style="fill:#e6e6ff;fill-opacity:1;stroke:#2c2d4a;stroke-width:5;stroke-linecap:round;stroke-linejoin:miter;stroke-dasharray:none;stroke-opacity:1;paint-order:stroke fill markers"
         d="m 466.37898,414.48297 -2.84993,10.08035 8.5974,-0.56002 4.82861,-8.91723 -3.86986,-2.02469 -0.51477,6.11714 -6.21908,3.4032 4.30615,-9.3911 z"
         id="path9-3-6-5-21"
         sodipodi:nodetypes="ccccccccc" /><path
         style="fill:#bdbde5;fill-opacity:1;stroke:#2c2d4a;stroke-width:5;stroke-linecap:round;stroke-linejoin:miter;stroke-dasharray:none;stroke-opacity:1;paint-order:stroke fill markers"
         d="m 513.74346,405.93398 -1.91354,-7.11597 7.35516,4.06627 3.1095,-4.24566 -1.31556,7.53455 -5.62101,-2.27233 z"
         id="path18-5"
         sodipodi:nodetypes="ccccccc" /><path
         id="path19-0"
         style="fill:#bdbde5;fill-opacity:1;stroke:#2c2d4a;stroke-width:5;stroke-linecap:round;stroke-linejoin:miter;stroke-dasharray:none;stroke-opacity:1;paint-order:stroke fill markers"
         d="m 523.78931,399.8345 -1.31516,6.27869 10.8231,-3.58789 z m 1.67461,2.51184 2.63117,0.53811 -2.93015,0.83715 z"
         sodipodi:nodetypes="cccccccc" /><path
         style="fill:#e6e6ff;fill-opacity:1;stroke:#2c2d4a;stroke-width:5;stroke-linecap:round;stroke-linejoin:miter;stroke-dasharray:none;stroke-opacity:1;paint-order:stroke fill markers"
         d="m 466.30281,402.84016 -21.01495,0.88795 3.59411,22.87543 10.35948,-0.7611 -5.49687,-10.78232 9.42924,0.38055 1.43764,-3.25584 -11.67027,-0.84567 -1.01481,-2.79072 22.07204,2.87529 z"
         id="path20-2"
         sodipodi:nodetypes="ccccccccccc" /><path
         id="path4-2-4-9"
         style="fill:#ffffff;stroke:#2c2d4a;stroke-width:5;stroke-linecap:round;stroke-linejoin:miter;stroke-dasharray:none;stroke-opacity:1;paint-order:stroke fill markers"
         d="m 459.74213,370.78366 5.18597,6.61447 -19.41074,26.11071 10.29731,-6.26644 15.12662,7.45012 -6.1579,-11.97592 24.56077,-13.22937 z m 10.61847,9.60856 6.16071,1.6015 -12.24034,5.29166 z" /><path
         style="fill:#e6e6ff;fill-opacity:1;stroke:none;stroke-width:3;stroke-linecap:round;stroke-linejoin:miter;stroke-dasharray:none;stroke-opacity:1;paint-order:stroke fill markers"
         d="m 506.19648,411.26964 1.56449,6.13112 1.98733,-0.88795 0.93024,-4.9049 z"
         id="path27-8" /><path
         style="fill:#2c2d4a;fill-opacity:1;stroke:none;stroke-width:3;stroke-linecap:round;stroke-linejoin:miter;stroke-dasharray:none;stroke-opacity:1;paint-order:stroke fill markers"
         d="m 480.39886,403.12025 13.81335,-11.06264 -12.61739,12.85658 z"
         id="path28-2" /><path
         style="fill:#2c2d4a;fill-opacity:1;stroke:none;stroke-width:3;stroke-linecap:round;stroke-linejoin:miter;stroke-dasharray:none;stroke-opacity:1;paint-order:stroke fill markers"
         d="m 486.46836,401.416 3.61778,-2.9301 -1.76404,3.85697 z"
         id="path29-7" /><path
         style="fill:#2c2d4a;fill-opacity:1;stroke:none;stroke-width:3;stroke-linecap:round;stroke-linejoin:miter;stroke-dasharray:none;stroke-opacity:1;paint-order:stroke fill markers"
         d="m 454.8053,398.93439 8.37172,-4.30546 -6.81697,4.78384 z"
         id="path30-8" /><path
         style="fill:#2c2d4a;fill-opacity:1;stroke:none;stroke-width:3;stroke-linecap:round;stroke-linejoin:miter;stroke-dasharray:none;stroke-opacity:1;paint-order:stroke fill markers"
         d="m 499.77342,397.37964 8.49132,-13.75355 -2.15272,11.36163 z"
         id="path31-5" /><path
         style="fill:#d7d7ff;fill-opacity:1;stroke:none;stroke-width:3;stroke-linecap:round;stroke-linejoin:miter;stroke-dasharray:none;stroke-opacity:1;paint-order:stroke fill markers"
         d="m 524.38032,424.76714 -5.29213,0.32889 -3.79717,-1.49495 -0.2392,-2.27233 9.2687,1.85374 z"
         id="path32-0" /></g></g></svg>
